<svg version="1.1" viewBox="0.0 0.0 789.0 296.0" fill="none" stroke="none" stroke-linecap="square" stroke-miterlimit="10" xmlns:xlink="http://www.w3.org/1999/xlink" xmlns="http://www.w3.org/2000/svg"><clipPath id="p.0"><path d="m0 0l789.0 0l0 296.0l-789.0 0l0 -296.0z" clip-rule="nonzero"/></clipPath><g clip-path="url(#p.0)"><path fill="#000000" fill-opacity="0.0" d="m0 0l789.0 0l0 296.0l-789.0 0z" fill-rule="evenodd"/><path fill="#ff0000" d="m4.307671 246.72955l0 0c0 -16.856415 13.664825 -30.52124 30.52124 -30.52124l0 0c8.094738 0 15.857933 3.215622 21.581776 8.939468c5.7238464 5.723831 8.939465 13.48703 8.939465 21.581772l0 0c0 16.856415 -13.664822 30.52124 -30.52124 30.52124l0 0c-16.856415 0 -30.52124 -13.664825 -30.52124 -30.52124z" fill-rule="evenodd"/><path stroke="#000000" stroke-width="1.8162729658792651" stroke-linejoin="round" stroke-linecap="butt" d="m4.307671 246.72955l0 0c0 -16.856415 13.664825 -30.52124 30.52124 -30.52124l0 0c8.094738 0 15.857933 3.215622 21.581776 8.939468c5.7238464 5.723831 8.939465 13.48703 8.939465 21.581772l0 0c0 16.856415 -13.664822 30.52124 -30.52124 30.52124l0 0c-16.856415 0 -30.52124 -13.664825 -30.52124 -30.52124z" fill-rule="evenodd"/><path fill="#000000" fill-opacity="0.0" d="m350.6918 38.515762l0 0c0 -16.856415 13.664825 -30.52124 30.52124 -30.52124l0 0c8.094757 0 15.857941 3.215622 21.581787 8.939464c5.7238464 5.7238445 8.939453 13.487041 8.939453 21.581776l0 0c0 16.856419 -13.664825 30.52124 -30.52124 30.52124l0 0c-16.856415 0 -30.52124 -13.664822 -30.52124 -30.52124z" fill-rule="evenodd"/><path stroke="#6aa84f" stroke-width="7.2650918635170605" stroke-linejoin="round" stroke-linecap="butt" d="m350.6918 38.515762l0 0c0 -16.856415 13.664825 -30.52124 30.52124 -30.52124l0 0c8.094757 0 15.857941 3.215622 21.581787 8.939464c5.7238464 5.7238445 8.939453 13.487041 8.939453 21.581776l0 0c0 16.856419 -13.664825 30.52124 -30.52124 30.52124l0 0c-16.856415 0 -30.52124 -13.664822 -30.52124 -30.52124z" fill-rule="evenodd"/><path fill="#6aa84f" d="m701.4811 114.32305l0 0c0 -16.856415 13.664856 -30.52124 30.52124 -30.52124l0 0c8.094727 0 15.85791 3.215622 21.581787 8.939461c5.723816 5.7238464 8.939453 13.487045 8.939453 21.58178l0 0c0 16.856422 -13.664795 30.521248 -30.52124 30.521248l0 0c-16.856384 0 -30.52124 -13.664825 -30.52124 -30.521248z" fill-rule="evenodd"/><path stroke="#000000" stroke-width="1.8162729658792651" stroke-linejoin="round" stroke-linecap="butt" d="m701.4811 114.32305l0 0c0 -16.856415 13.664856 -30.52124 30.52124 -30.52124l0 0c8.094727 0 15.85791 3.215622 21.581787 8.939461c5.723816 5.7238464 8.939453 13.487045 8.939453 21.58178l0 0c0 16.856422 -13.664795 30.521248 -30.52124 30.521248l0 0c-16.856384 0 -30.52124 -13.664825 -30.52124 -30.521248z" fill-rule="evenodd"/><path fill="#000000" fill-opacity="0.0" d="m306.24484 45.955376l0 0c0 -16.856415 13.664825 -30.52124 30.52124 -30.52124l0 0c8.094727 0 15.857941 3.215622 21.581787 8.939465c5.723816 5.7238426 8.939453 13.487041 8.939453 21.581776l0 0c0 16.856415 -13.664825 30.52124 -30.52124 30.52124l0 0c-16.856415 0 -30.52124 -13.664825 -30.52124 -30.52124z" fill-rule="evenodd"/><path stroke="#ff0000" stroke-width="7.2650918635170605" stroke-linejoin="round" stroke-linecap="butt" d="m306.24484 45.955376l0 0c0 -16.856415 13.664825 -30.52124 30.52124 -30.52124l0 0c8.094727 0 15.857941 3.215622 21.581787 8.939465c5.723816 5.7238426 8.939453 13.487041 8.939453 21.581776l0 0c0 16.856415 -13.664825 30.52124 -30.52124 30.52124l0 0c-16.856415 0 -30.52124 -13.664825 -30.52124 -30.52124z" fill-rule="evenodd"/><path fill="#000000" fill-opacity="0.0" d="m56.410686 225.14778l249.83366 -167.22322" fill-rule="evenodd"/><path stroke="#ff0000" stroke-width="1.8162729658792651" stroke-linejoin="round" stroke-linecap="butt" d="m56.41069 225.14778l240.77748 -161.16156" fill-rule="evenodd"/><path fill="#ff0000" stroke="#ff0000" stroke-width="1.8162729658792651" stroke-linecap="butt" d="m298.85687 66.47929l5.1809387 -7.0778046l-8.518372 2.0916672z" fill-rule="evenodd"/><path fill="#000000" fill-opacity="0.0" d="m701.4811 114.32305l-296.7454 -63.102024" fill-rule="evenodd"/><path stroke="#6aa84f" stroke-width="1.8162729658792651" stroke-linejoin="round" stroke-linecap="butt" d="m701.4811 114.32305l-286.08612 -60.83535" fill-rule="evenodd"/><path fill="#6aa84f" stroke="#6aa84f" stroke-width="1.8162729658792651" stroke-linecap="butt" d="m416.01898 50.553314l-8.686157 1.2199936l7.4381714 4.648777z" fill-rule="evenodd"/></g></svg>