<svg version="1.1" viewBox="0.0 0.0 473.24146981627297 303.8503937007874" fill="none" stroke="none" stroke-linecap="square" stroke-miterlimit="10" xmlns:xlink="http://www.w3.org/1999/xlink" xmlns="http://www.w3.org/2000/svg"><clipPath id="p.0"><path d="m0 0l473.24146 0l0 303.8504l-473.24146 0l0 -303.8504z" clip-rule="nonzero"/></clipPath><g clip-path="url(#p.0)"><path fill="#000000" fill-opacity="0.0" d="m0 0l473.24146 0l0 303.8504l-473.24146 0z" fill-rule="evenodd"/><path fill="#ff0000" d="m48.115486 262.45932l0 0c0 -9.280121 7.5230255 -16.803146 16.803146 -16.803146l0 0c4.4564743 0 8.730423 1.7703247 11.881622 4.921524c3.151207 3.1511993 4.9215317 7.4251404 4.9215317 11.881622l0 0c0 9.280121 -7.5230255 16.803162 -16.803154 16.803162l0 0c-9.280121 0 -16.803146 -7.523041 -16.803146 -16.803162z" fill-rule="evenodd"/><path stroke="#000000" stroke-width="1.0" stroke-linejoin="round" stroke-linecap="butt" d="m48.115486 262.45932l0 0c0 -9.280121 7.5230255 -16.803146 16.803146 -16.803146l0 0c4.4564743 0 8.730423 1.7703247 11.881622 4.921524c3.151207 3.1511993 4.9215317 7.4251404 4.9215317 11.881622l0 0c0 9.280121 -7.5230255 16.803162 -16.803154 16.803162l0 0c-9.280121 0 -16.803146 -7.523041 -16.803146 -16.803162z" fill-rule="evenodd"/><path fill="#ffff00" d="m218.61942 140.39896l0 0c0 -9.280136 7.523041 -16.803154 16.803162 -16.803154l0 0c4.4564667 0 8.730408 1.7703247 11.881622 4.9215317c3.1511993 3.1511993 4.921524 7.4251404 4.921524 11.881622l0 0c0 9.280121 -7.5230255 16.803146 -16.803146 16.803146l0 0c-9.280121 0 -16.803162 -7.5230255 -16.803162 -16.803146z" fill-rule="evenodd"/><path stroke="#000000" stroke-width="1.0" stroke-linejoin="round" stroke-linecap="butt" d="m218.61942 140.39896l0 0c0 -9.280136 7.523041 -16.803154 16.803162 -16.803154l0 0c4.4564667 0 8.730408 1.7703247 11.881622 4.9215317c3.1511993 3.1511993 4.921524 7.4251404 4.921524 11.881622l0 0c0 9.280121 -7.5230255 16.803146 -16.803146 16.803146l0 0c-9.280121 0 -16.803162 -7.5230255 -16.803162 -16.803146z" fill-rule="evenodd"/><path fill="#6aa84f" d="m3.296588 96.74541l0 0c0 -9.280121 7.5230265 -16.803146 16.80315 -16.803146l0 0c4.4564724 0 8.730419 1.7703247 11.881622 4.921524c3.1512012 3.1511993 4.921526 7.425148 4.921526 11.881622l0 0c0 9.280121 -7.5230255 16.803146 -16.803148 16.803146l0 0c-9.280123 0 -16.80315 -7.5230255 -16.80315 -16.803146z" fill-rule="evenodd"/><path stroke="#000000" stroke-width="1.0" stroke-linejoin="round" stroke-linecap="butt" d="m3.296588 96.74541l0 0c0 -9.280121 7.5230265 -16.803146 16.80315 -16.803146l0 0c4.4564724 0 8.730419 1.7703247 11.881622 4.921524c3.1512012 3.1511993 4.921526 7.425148 4.921526 11.881622l0 0c0 9.280121 -7.5230255 16.803146 -16.803148 16.803146l0 0c-9.280123 0 -16.80315 -7.5230255 -16.80315 -16.803146z" fill-rule="evenodd"/><path fill="#6aa84f" d="m431.937 189.5643l0 0c0 -9.280121 7.5230103 -16.803146 16.803131 -16.803146l0 0c4.456482 0 8.730438 1.7703247 11.881622 4.921524c3.1512146 3.1512146 4.9215393 7.4251556 4.9215393 11.881622l0 0c0 9.280121 -7.5230103 16.803146 -16.803162 16.803146l0 0c-9.280121 0 -16.803131 -7.5230255 -16.803131 -16.803146z" fill-rule="evenodd"/><path stroke="#000000" stroke-width="1.0" stroke-linejoin="round" stroke-linecap="butt" d="m431.937 189.5643l0 0c0 -9.280121 7.5230103 -16.803146 16.803131 -16.803146l0 0c4.456482 0 8.730438 1.7703247 11.881622 4.921524c3.1512146 3.1512146 4.9215393 7.4251556 4.9215393 11.881622l0 0c0 9.280121 -7.5230103 16.803146 -16.803162 16.803146l0 0c-9.280121 0 -16.803131 -7.5230255 -16.803131 -16.803146z" fill-rule="evenodd"/><path fill="#ff0000" d="m391.77692 24.055119l0 0c0 -9.280124 7.5230103 -16.80315 16.803131 -16.80315l0 0c4.456482 0 8.730438 1.7703266 11.881622 4.921529c3.1512146 3.1512012 4.9215393 7.425149 4.9215393 11.881621l0 0c0 9.280125 -7.523041 16.80315 -16.803162 16.80315l0 0c-9.280121 0 -16.803131 -7.5230255 -16.803131 -16.80315z" fill-rule="evenodd"/><path stroke="#000000" stroke-width="1.0" stroke-linejoin="round" stroke-linecap="butt" d="m391.77692 24.055119l0 0c0 -9.280124 7.5230103 -16.80315 16.803131 -16.80315l0 0c4.456482 0 8.730438 1.7703266 11.881622 4.921529c3.1512146 3.1512012 4.9215393 7.425149 4.9215393 11.881621l0 0c0 9.280125 -7.523041 16.80315 -16.803162 16.80315l0 0c-9.280121 0 -16.803131 -7.5230255 -16.803131 -16.80315z" fill-rule="evenodd"/><path fill="#000000" fill-opacity="0.0" d="m76.800255 250.5777l146.74017 -98.29921" fill-rule="evenodd"/><path stroke="#ff0000" stroke-width="1.0" stroke-linejoin="round" stroke-linecap="butt" d="m76.800255 250.5777l141.75528 -94.959915" fill-rule="evenodd"/><path fill="#ff0000" stroke="#ff0000" stroke-width="1.0" stroke-linecap="butt" d="m219.47481 156.99007l2.8510437 -3.8979645l-4.6895905 1.1533966z" fill-rule="evenodd"/><path fill="#000000" fill-opacity="0.0" d="m247.69002 129.48322l146.74016 -98.29922" fill-rule="evenodd"/><path stroke="#ff0000" stroke-width="1.0" stroke-linejoin="round" stroke-linecap="butt" d="m247.69002 129.4832l141.75526 -94.9599" fill-rule="evenodd"/><path fill="#ff0000" stroke="#ff0000" stroke-width="1.0" stroke-linecap="butt" d="m390.36456 35.89558l2.8510132 -3.8979607l-4.689575 1.1534004z" fill-rule="evenodd"/><path fill="#000000" fill-opacity="0.0" d="m431.937 189.5643l-184.62993 -37.291336" fill-rule="evenodd"/><path stroke="#6aa84f" stroke-width="1.0" stroke-linejoin="round" stroke-linecap="butt" d="m431.937 189.5643l-178.74869 -36.10344" fill-rule="evenodd"/><path fill="#6aa84f" stroke="#6aa84f" stroke-width="1.0" stroke-linecap="butt" d="m253.51534 151.84181l-4.775284 0.72058105l4.1212616 2.5175018z" fill-rule="evenodd"/><path fill="#000000" fill-opacity="0.0" d="m218.61942 137.6588l-184.62991 -37.291344" fill-rule="evenodd"/><path stroke="#6aa84f" stroke-width="1.0" stroke-linejoin="round" stroke-linecap="butt" d="m218.61942 137.6588l-178.74867 -36.103455" fill-rule="evenodd"/><path fill="#6aa84f" stroke="#6aa84f" stroke-width="1.0" stroke-linecap="butt" d="m40.197746 99.9363l-4.77528 0.72058105l4.121258 2.5174942z" fill-rule="evenodd"/><path fill="#000000" fill-opacity="0.0" d="m351.2467 125.85827l42.141754 0l0 42.01574l-42.141754 0z" fill-rule="evenodd"/><path fill="#6aa84f" d="m361.16858 153.57513l1.59375 0.234375q0.109375 0.75 0.5625 1.078125q0.609375 0.453125 1.671875 0.453125q1.140625 0 1.75 -0.453125q0.625 -0.453125 0.84375 -1.265625q0.125 -0.5 0.109375 -2.109375q-1.0625 1.265625 -2.671875 1.265625q-2.0 0 -3.09375 -1.4375q-1.09375 -1.4375 -1.09375 -3.453125q0 -1.390625 0.5 -2.5625q0.515625 -1.171875 1.453125 -1.796875q0.953125 -0.640625 2.25 -0.640625q1.703125 0 2.8125 1.375l0 -1.15625l1.515625 0l0 8.359375q0 2.265625 -0.46875 3.203125q-0.453125 0.9375 -1.453125 1.484375q-0.984375 0.546875 -2.453125 0.546875q-1.71875 0 -2.796875 -0.78125q-1.0625 -0.765625 -1.03125 -2.34375zm1.359375 -5.8125q0 1.90625 0.75 2.78125q0.765625 0.875 1.90625 0.875q1.125 0 1.890625 -0.859375q0.765625 -0.875 0.765625 -2.734375q0 -1.78125 -0.796875 -2.671875q-0.78125 -0.90625 -1.890625 -0.90625q-1.09375 0 -1.859375 0.890625q-0.765625 0.875 -0.765625 2.625zm12.016357 5.015625l-3.6875 -9.671875l1.734375 0l2.078125 5.796875q0.328125 0.9375 0.625 1.9375q0.203125 -0.765625 0.609375 -1.828125l2.140625 -5.90625l1.6875 0l-3.65625 9.671875l-1.53125 0z" fill-rule="nonzero"/><path fill="#000000" fill-opacity="0.0" d="m93.414696 69.18635l42.14173 0l0 42.015755l-42.14173 0z" fill-rule="evenodd"/><path fill="#6aa84f" d="m103.33657 96.90322l1.59375 0.234375q0.109375 0.75 0.5625 1.078125q0.609375 0.453125 1.671875 0.453125q1.140625 0 1.75 -0.453125q0.625 -0.453125 0.84375 -1.265625q0.125 -0.5 0.109375 -2.109375q-1.0625 1.265625 -2.671875 1.265625q-2.0 0 -3.09375 -1.4375q-1.09375 -1.4375 -1.09375 -3.453125q0 -1.390625 0.5 -2.5625q0.515625 -1.171875 1.453125 -1.796875q0.953125 -0.640625 2.25 -0.640625q1.703125 0 2.8125 1.375l0 -1.15625l1.515625 0l0 8.359375q0 2.265625 -0.46875 3.203125q-0.453125 0.9375 -1.453125 1.484375q-0.984375 0.546875 -2.453125 0.546875q-1.71875 0 -2.796875 -0.78125q-1.0625 -0.765625 -1.03125 -2.34375zm1.359375 -5.8125q0 1.90625 0.75 2.78125q0.765625 0.875 1.90625 0.875q1.125 0 1.890625 -0.859375q0.765625 -0.875 0.765625 -2.734375q0 -1.78125 -0.796875 -2.671875q-0.78125 -0.90625 -1.890625 -0.90625q-1.09375 0 -1.859375 0.890625q-0.765625 0.875 -0.765625 2.625zm12.016342 5.015625l-3.6875 -9.671875l1.734375 0l2.078125 5.796875q0.328125 0.9375 0.625 1.9375q0.203125 -0.765625 0.609375 -1.828125l2.140625 -5.90625l1.6875 0l-3.65625 9.671875l-1.53125 0z" fill-rule="nonzero"/><path fill="#000000" fill-opacity="0.0" d="m112.69292 175.35957l45.826767 0l0 31.05513l-45.826767 0z" fill-rule="evenodd"/><path fill="#ff0000" d="m122.91167 202.27957l0 -9.671875l1.46875 0l0 1.46875q0.5625 -1.03125 1.03125 -1.359375q0.484375 -0.328125 1.0625 -0.328125q0.828125 0 1.6875 0.53125l-0.5625 1.515625q-0.609375 -0.359375 -1.203125 -0.359375q-0.546875 0 -0.96875 0.328125q-0.421875 0.328125 -0.609375 0.890625q-0.28125 0.875 -0.28125 1.921875l0 5.0625l-1.625 0zm8.915802 0l-3.6875 -9.671875l1.734375 0l2.078125 5.796875q0.328125 0.9375 0.625 1.9375q0.203125 -0.765625 0.609375 -1.828125l2.140625 -5.90625l1.6875 0l-3.65625 9.671875l-1.53125 0z" fill-rule="nonzero"/><path fill="#000000" fill-opacity="0.0" d="m283.51443 56.020996l45.826782 0l0 31.055122l-45.826782 0z" fill-rule="evenodd"/><path fill="#ff0000" d="m293.7332 82.940994l0 -9.671875l1.46875 0l0 1.46875q0.5625 -1.03125 1.03125 -1.359375q0.484375 -0.328125 1.0625 -0.328125q0.828125 0 1.6875 0.53125l-0.5625 1.515625q-0.609375 -0.359375 -1.203125 -0.359375q-0.546875 0 -0.96875 0.328125q-0.421875 0.328125 -0.609375 0.890625q-0.28125 0.875 -0.28125 1.921875l0 5.0625l-1.625 0zm8.915802 0l-3.6875 -9.671875l1.734375 0l2.078125 5.796875q0.328125 0.9375 0.625 1.9375q0.203125 -0.765625 0.609375 -1.828125l2.140625 -5.90625l1.6875 0l-3.65625 9.671875l-1.53125 0z" fill-rule="nonzero"/></g></svg>