<svg version="1.1" viewBox="0.0 0.0 786.7821522309712 345.98425196850394" fill="none" stroke="none" stroke-linecap="square" stroke-miterlimit="10" xmlns:xlink="http://www.w3.org/1999/xlink" xmlns="http://www.w3.org/2000/svg"><clipPath id="p.0"><path d="m0 0l786.78217 0l0 345.98425l-786.78217 0l0 -345.98425z" clip-rule="nonzero"/></clipPath><g clip-path="url(#p.0)"><path fill="#000000" fill-opacity="0.0" d="m0 0l786.78217 0l0 345.98425l-786.78217 0z" fill-rule="evenodd"/><path fill="#ff0000" d="m3.2000594 302.65082l0 0c0 -16.856415 13.664824 -30.52124 30.521242 -30.52124l0 0c8.094734 0 15.857933 3.2156067 21.581776 8.939453c5.7238426 5.7238464 8.939461 13.487061 8.939461 21.581787l0 0c0 16.856415 -13.664822 30.52124 -30.521236 30.52124l0 0c-16.856419 0 -30.521242 -13.664825 -30.521242 -30.52124z" fill-rule="evenodd"/><path stroke="#000000" stroke-width="1.8162729658792651" stroke-linejoin="round" stroke-linecap="butt" d="m3.2000594 302.65082l0 0c0 -16.856415 13.664824 -30.52124 30.521242 -30.52124l0 0c8.094734 0 15.857933 3.2156067 21.581776 8.939453c5.7238426 5.7238464 8.939461 13.487061 8.939461 21.581787l0 0c0 16.856415 -13.664822 30.52124 -30.521236 30.52124l0 0c-16.856419 0 -30.521242 -13.664825 -30.521242 -30.52124z" fill-rule="evenodd"/><path fill="#000000" fill-opacity="0.0" d="m349.5842 94.43703l0 0c0 -16.856422 13.664825 -30.521244 30.52124 -30.521244l0 0c8.094727 0 15.857941 3.2156181 21.581787 8.939465c5.7238464 5.7238464 8.939453 13.487038 8.939453 21.58178l0 0c0 16.856415 -13.664825 30.52124 -30.52124 30.52124l0 0c-16.856415 0 -30.52124 -13.664825 -30.52124 -30.52124z" fill-rule="evenodd"/><path stroke="#6aa84f" stroke-width="1.0" stroke-linejoin="round" stroke-linecap="butt" stroke-dasharray="4.0,3.0" d="m349.5842 94.43703l0 0c0 -16.856422 13.664825 -30.521244 30.52124 -30.521244l0 0c8.094727 0 15.857941 3.2156181 21.581787 8.939465c5.7238464 5.7238464 8.939453 13.487038 8.939453 21.58178l0 0c0 16.856415 -13.664825 30.52124 -30.52124 30.52124l0 0c-16.856415 0 -30.52124 -13.664825 -30.52124 -30.52124z" fill-rule="evenodd"/><path fill="#6aa84f" d="m700.3735 170.24431l0 0c0 -16.856415 13.664795 -30.52124 30.52124 -30.52124l0 0c8.094727 0 15.85791 3.215622 21.581787 8.939468c5.723816 5.7238464 8.939453 13.487045 8.939453 21.581772l0 0c0 16.856415 -13.664795 30.52124 -30.52124 30.52124l0 0c-16.856445 0 -30.52124 -13.664825 -30.52124 -30.52124z" fill-rule="evenodd"/><path stroke="#000000" stroke-width="1.8162729658792651" stroke-linejoin="round" stroke-linecap="butt" d="m700.3735 170.24431l0 0c0 -16.856415 13.664795 -30.52124 30.52124 -30.52124l0 0c8.094727 0 15.85791 3.215622 21.581787 8.939468c5.723816 5.7238464 8.939453 13.487045 8.939453 21.581772l0 0c0 16.856415 -13.664795 30.52124 -30.52124 30.52124l0 0c-16.856445 0 -30.52124 -13.664825 -30.52124 -30.52124z" fill-rule="evenodd"/><path fill="#000000" fill-opacity="0.0" d="m305.13724 101.87663l0 0c0 -16.856415 13.664825 -30.52124 30.52124 -30.52124l0 0c8.094727 0 15.85791 3.215622 21.581757 8.939468c5.7238464 5.723839 8.939484 13.487038 8.939484 21.581772l0 0c0 16.856422 -13.664825 30.52124 -30.52124 30.52124l0 0c-16.856415 0 -30.52124 -13.664818 -30.52124 -30.52124z" fill-rule="evenodd"/><path stroke="#ff0000" stroke-width="1.0" stroke-linejoin="round" stroke-linecap="butt" stroke-dasharray="4.0,3.0" d="m305.13724 101.87663l0 0c0 -16.856415 13.664825 -30.52124 30.52124 -30.52124l0 0c8.094727 0 15.85791 3.215622 21.581757 8.939468c5.7238464 5.723839 8.939484 13.487038 8.939484 21.581772l0 0c0 16.856422 -13.664825 30.52124 -30.52124 30.52124l0 0c-16.856415 0 -30.52124 -13.664818 -30.52124 -30.52124z" fill-rule="evenodd"/><path fill="#000000" fill-opacity="0.0" d="m55.303078 281.06903l249.82678 -167.21259" fill-rule="evenodd"/><path stroke="#ff0000" stroke-width="1.8162729658792651" stroke-linejoin="round" stroke-linecap="butt" d="m55.303078 281.06903l240.77045 -161.15106" fill-rule="evenodd"/><path fill="#ff0000" stroke="#ff0000" stroke-width="1.8162729658792651" stroke-linecap="butt" d="m297.74222 122.41105l5.181061 -7.077713l-8.518402 2.0915222z" fill-rule="evenodd"/><path fill="#000000" fill-opacity="0.0" d="m700.3735 170.24431l-296.75592 -63.08661" fill-rule="evenodd"/><path stroke="#6aa84f" stroke-width="1.8162729658792651" stroke-linejoin="round" stroke-linecap="butt" d="m700.3734 170.24431l-286.09637 -60.82055" fill-rule="evenodd"/><path fill="#6aa84f" stroke="#6aa84f" stroke-width="1.8162729658792651" stroke-linecap="butt" d="m414.90082 106.489334l-8.686066 1.2204895l7.438446 4.6483536z" fill-rule="evenodd"/><path fill="#000000" fill-opacity="0.0" d="m366.17737 76.62182l0 0c0 -16.855556 13.664124 -30.519684 30.519684 -30.519684l0 0c8.09433 0 15.857147 3.215458 21.580688 8.939011c5.7235413 5.723549 8.938995 13.486351 8.938995 21.580673l0 0c0 16.85556 -13.664124 30.519684 -30.519684 30.519684l0 0c-16.85556 0 -30.519684 -13.664124 -30.519684 -30.519684z" fill-rule="evenodd"/><path stroke="#6aa84f" stroke-width="7.2650918635170605" stroke-linejoin="round" stroke-linecap="butt" d="m366.17737 76.62182l0 0c0 -16.855556 13.664124 -30.519684 30.519684 -30.519684l0 0c8.09433 0 15.857147 3.215458 21.580688 8.939011c5.7235413 5.723549 8.938995 13.486351 8.938995 21.580673l0 0c0 16.85556 -13.664124 30.519684 -30.519684 30.519684l0 0c-16.85556 0 -30.519684 -13.664124 -30.519684 -30.519684z" fill-rule="evenodd"/><path fill="#000000" fill-opacity="0.0" d="m285.15036 87.42101l0 0c0 -16.85556 13.664124 -30.519688 30.519684 -30.519688l0 0c8.09433 0 15.857117 3.215458 21.580658 8.939007c5.723572 5.7235565 8.939026 13.486359 8.939026 21.58068l0 0c0 16.855553 -13.664124 30.519684 -30.519684 30.519684l0 0c-16.85556 0 -30.519684 -13.664131 -30.519684 -30.519684z" fill-rule="evenodd"/><path stroke="#ff0000" stroke-width="7.2650918635170605" stroke-linejoin="round" stroke-linecap="butt" d="m285.15036 87.42101l0 0c0 -16.85556 13.664124 -30.519688 30.519684 -30.519688l0 0c8.09433 0 15.857117 3.215458 21.580658 8.939007c5.723572 5.7235565 8.939026 13.486359 8.939026 21.58068l0 0c0 16.855553 -13.664124 30.519684 -30.519684 30.519684l0 0c-16.85556 0 -30.519684 -13.664131 -30.519684 -30.519684z" fill-rule="evenodd"/></g></svg>