<svg version="1.1" viewBox="0.0 0.0 237.76115485564304 244.47769028871392" fill="none" stroke="none" stroke-linecap="square" stroke-miterlimit="10" xmlns:xlink="http://www.w3.org/1999/xlink" xmlns="http://www.w3.org/2000/svg"><clipPath id="p.0"><path d="m0 0l237.76115 0l0 244.47769l-237.76115 0l0 -244.47769z" clip-rule="nonzero"/></clipPath><g clip-path="url(#p.0)"><path fill="#000000" fill-opacity="0.0" d="m0 0l237.76115 0l0 244.47769l-237.76115 0z" fill-rule="evenodd"/><path fill="#000000" fill-opacity="0.0" d="m190.7454 1.343832l0 178.64568" fill-rule="evenodd"/><path stroke="#9900ff" stroke-width="4.0" stroke-linejoin="round" stroke-linecap="butt" d="m190.7454 1.343832l0 178.64568" fill-rule="evenodd"/><path fill="#000000" d="m88.656166 150.44095l0 0c0 -5.9316254 4.8085327 -10.740158 10.740158 -10.740158l0 0c2.848465 0 5.580269 1.131546 7.5944366 3.1457214c2.0141754 2.0141602 3.1457214 4.7459717 3.1457214 7.5944366l0 0c0 5.9316254 -4.8085327 10.740158 -10.740158 10.740158l0 0c-5.9316254 0 -10.740158 -4.8085327 -10.740158 -10.740158z" fill-rule="evenodd"/><path stroke="#000000" stroke-width="1.0" stroke-linejoin="round" stroke-linecap="butt" d="m88.656166 150.44095l0 0c0 -5.9316254 4.8085327 -10.740158 10.740158 -10.740158l0 0c2.848465 0 5.580269 1.131546 7.5944366 3.1457214c2.0141754 2.0141602 3.1457214 4.7459717 3.1457214 7.5944366l0 0c0 5.9316254 -4.8085327 10.740158 -10.740158 10.740158l0 0c-5.9316254 0 -10.740158 -4.8085327 -10.740158 -10.740158z" fill-rule="evenodd"/><path fill="#000000" fill-opacity="0.0" d="m106.99076 142.84651l81.07087 -58.204727" fill-rule="evenodd"/><path stroke="#000000" stroke-width="2.0" stroke-linejoin="round" stroke-linecap="butt" d="m106.99076 142.84651l71.32299 -51.206245" fill-rule="evenodd"/><path fill="#000000" stroke="#000000" stroke-width="2.0" stroke-linecap="butt" d="m180.24036 94.323746l5.446213 -7.976776l-9.299423 2.6098099z" fill-rule="evenodd"/><path fill="#000000" fill-opacity="0.0" d="m185.3727 84.6273l-77.22834 -77.22835" fill-rule="evenodd"/><path stroke="#000000" stroke-width="2.0" stroke-linejoin="round" stroke-linecap="butt" d="m185.3727 84.6273l-68.743065 -68.743065" fill-rule="evenodd"/><path fill="#000000" stroke="#000000" stroke-width="2.0" stroke-linecap="butt" d="m118.96554 13.548328l-8.753738 -4.081936l4.0819397 8.75374z" fill-rule="evenodd"/><path fill="#000000" fill-opacity="0.0" d="m110.13648 81.93964l0 -60.44095" fill-rule="evenodd"/><path stroke="#6aa84f" stroke-width="1.0" stroke-linejoin="round" stroke-linecap="butt" stroke-dasharray="4.0,3.0" d="m110.13648 81.93964l0 -54.44095" fill-rule="evenodd"/><path fill="#6aa84f" stroke="#6aa84f" stroke-width="1.0" stroke-linecap="butt" d="m111.788216 27.498688l-1.6517334 -4.5380974l-1.6517334 4.5380974z" fill-rule="evenodd"/><path fill="#000000" fill-opacity="0.0" d="m110.13648 145.08398l0 -60.44094" fill-rule="evenodd"/><path stroke="#6aa84f" stroke-width="1.0" stroke-linejoin="round" stroke-linecap="butt" stroke-dasharray="4.0,3.0" d="m110.13648 145.08398l0 -54.44094" fill-rule="evenodd"/><path fill="#6aa84f" stroke="#6aa84f" stroke-width="1.0" stroke-linecap="butt" d="m111.788216 90.64304l-1.6517334 -4.5380936l-1.6517334 4.5380936z" fill-rule="evenodd"/><path fill="#000000" fill-opacity="0.0" d="m106.99076 142.84651l75.685036 -0.47244263" fill-rule="evenodd"/><path stroke="#ff0000" stroke-width="1.0" stroke-linejoin="round" stroke-linecap="butt" stroke-dasharray="4.0,3.0" d="m106.99076 142.84651l69.68517 -0.43499756" fill-rule="evenodd"/><path fill="#ff0000" stroke="#ff0000" stroke-width="1.0" stroke-linecap="butt" d="m176.68623 144.06322l4.52771 -1.6800232l-4.5483246 -1.6233673z" fill-rule="evenodd"/><path fill="#000000" fill-opacity="0.0" d="m109.68368 85.09847l75.685036 -0.472435" fill-rule="evenodd"/><path stroke="#ff0000" stroke-width="1.0" stroke-linejoin="round" stroke-linecap="butt" stroke-dasharray="4.0,3.0" d="m115.68356 85.06102l69.685165 -0.4349823" fill-rule="evenodd"/><path fill="#ff0000" stroke="#ff0000" stroke-width="1.0" stroke-linecap="butt" d="m115.67325 83.409325l-4.5277023 1.6800232l4.5483246 1.6233749z" fill-rule="evenodd"/><path fill="#000000" fill-opacity="0.0" d="m177.31233 197.46194l38.960632 0l0 42.015747l-38.960632 0z" fill-rule="evenodd"/><path fill="#000000" d="m189.56233 224.38194l-3.1875 -13.359375l2.765625 0l2.015625 9.171875l2.4375 -9.171875l3.203125 0l2.34375 9.328125l2.046875 -9.328125l2.71875 0l-3.25 13.359375l-2.859375 0l-2.65625 -9.984375l-2.65625 9.984375l-2.921875 0z" fill-rule="nonzero"/><path fill="#000000" fill-opacity="0.0" d="m43.93176 44.238846l44.724407 0l0 37.70079l-44.724407 0z" fill-rule="evenodd"/><path fill="#6aa84f" d="m56.291134 68.59885l-3.15625 -8.296875l1.484375 0l1.78125 4.96875q0.296875 0.796875 0.53125 1.671875q0.1875 -0.65625 0.53125 -1.578125l1.84375 -5.0625l1.4375 0l-3.140625 8.296875l-1.3125 0zm5.640625 3.203125l-0.15625 -1.328125q0.453125 0.125 0.796875 0.125q0.46875 0 0.75 -0.15625q0.28125 -0.15625 0.46875 -0.4375q0.125 -0.203125 0.4218712 -1.046875q0.046875 -0.109375 0.125 -0.34375l-3.1406212 -8.3125l1.515625 0l1.7187462 4.796875q0.34375 0.921875 0.609375 1.921875q0.234375 -0.96875 0.578125 -1.890625l1.765625 -4.828125l1.40625 0l-3.15625 8.4375q-0.5 1.375 -0.78125 1.890625q-0.375 0.6875 -0.8593712 1.015625q-0.484375 0.328125 -1.15625 0.328125q-0.40625 0 -0.90625 -0.171875z" fill-rule="nonzero"/><path fill="#000000" fill-opacity="0.0" d="m127.25722 151.43045l50.04724 0l0 31.02362l-50.04724 0z" fill-rule="evenodd"/><path fill="#ff0000" d="m139.6166 175.79045l-3.15625 -8.296875l1.484375 0l1.78125 4.96875q0.296875 0.796875 0.53125 1.671875q0.1875 -0.65625 0.53125 -1.578125l1.84375 -5.0625l1.4375 0l-3.140625 8.296875l-1.3125 0zm4.765625 0l3.03125 -4.3125l-2.8125 -3.984375l1.765625 0l1.265625 1.9375q0.359375 0.5625 0.578125 0.9375q0.34375 -0.515625 0.640625 -0.921875l1.390625 -1.953125l1.6875 0l-2.875 3.90625l3.09375 4.390625l-1.734375 0l-1.703125 -2.578125l-0.453125 -0.703125l-2.171875 3.28125l-1.703125 0z" fill-rule="nonzero"/><path fill="#000000" fill-opacity="0.0" d="m114.67716 54.076115l50.04725 0l0 31.023624l-50.04725 0z" fill-rule="evenodd"/><path fill="#ff0000" d="m124.19279 74.99862l0 -1.421875l4.3125076 0l0 1.421875l-4.3125076 0zm8.171883 3.4375l-3.15625 -8.296875l1.484375 0l1.78125 4.96875q0.296875 0.796875 0.53125 1.671875q0.1875 -0.65625 0.53125 -1.578125l1.84375 -5.0625l1.4375 0l-3.140625 8.296875l-1.3125 0zm4.765625 0l3.03125 -4.3125l-2.8125 -3.984375l1.765625 0l1.265625 1.9375q0.359375 0.5625 0.578125 0.9375q0.34375 -0.515625 0.640625 -0.921875l1.390625 -1.953125l1.6875 0l-2.875 3.90625l3.09375 4.390625l-1.734375 0l-1.703125 -2.578125l-0.453125 -0.703125l-2.171875 3.28125l-1.703125 0z" fill-rule="nonzero"/></g></svg>