<svg version="1.1" viewBox="0.0 0.0 237.76115485564304 244.47769028871392" fill="none" stroke="none" stroke-linecap="square" stroke-miterlimit="10" xmlns:xlink="http://www.w3.org/1999/xlink" xmlns="http://www.w3.org/2000/svg"><clipPath id="p.0"><path d="m0 0l237.76115 0l0 244.47769l-237.76115 0l0 -244.47769z" clip-rule="nonzero"/></clipPath><g clip-path="url(#p.0)"><path fill="#000000" fill-opacity="0.0" d="m0 0l237.76115 0l0 244.47769l-237.76115 0z" fill-rule="evenodd"/><path fill="#000000" fill-opacity="0.0" d="m190.7454 1.343832l0 178.64568" fill-rule="evenodd"/><path stroke="#9900ff" stroke-width="4.0" stroke-linejoin="round" stroke-linecap="butt" d="m190.7454 1.343832l0 178.64568" fill-rule="evenodd"/><path fill="#000000" d="m88.656166 150.44095l0 0c0 -5.9316254 4.8085327 -10.740158 10.740158 -10.740158l0 0c2.848465 0 5.580269 1.131546 7.5944366 3.1457214c2.0141754 2.0141602 3.1457214 4.7459717 3.1457214 7.5944366l0 0c0 5.9316254 -4.8085327 10.740158 -10.740158 10.740158l0 0c-5.9316254 0 -10.740158 -4.8085327 -10.740158 -10.740158z" fill-rule="evenodd"/><path stroke="#000000" stroke-width="1.0" stroke-linejoin="round" stroke-linecap="butt" d="m88.656166 150.44095l0 0c0 -5.9316254 4.8085327 -10.740158 10.740158 -10.740158l0 0c2.848465 0 5.580269 1.131546 7.5944366 3.1457214c2.0141754 2.0141602 3.1457214 4.7459717 3.1457214 7.5944366l0 0c0 5.9316254 -4.8085327 10.740158 -10.740158 10.740158l0 0c-5.9316254 0 -10.740158 -4.8085327 -10.740158 -10.740158z" fill-rule="evenodd"/><path fill="#000000" fill-opacity="0.0" d="m106.99076 142.84651l106.015755 -74.897644" fill-rule="evenodd"/><path stroke="#000000" stroke-width="2.0" stroke-linejoin="round" stroke-linecap="butt" d="m106.99076 142.84651l96.21488 -67.97356" fill-rule="evenodd"/><path fill="#000000" stroke="#000000" stroke-width="2.0" stroke-linecap="butt" d="m205.11177 77.57102l5.5067596 -7.9350967l-9.319 2.5389633z" fill-rule="evenodd"/><path fill="#000000" fill-opacity="0.0" d="m106.99076 142.84651l107.37008 -0.09449768" fill-rule="evenodd"/><path stroke="#ff0000" stroke-width="1.0" stroke-linejoin="round" stroke-linecap="butt" stroke-dasharray="4.0,3.0" d="m106.99076 142.84651l101.370094 -0.08921814" fill-rule="evenodd"/><path fill="#ff0000" stroke="#ff0000" stroke-width="1.0" stroke-linecap="butt" d="m208.3623 144.40903l4.5366516 -1.655716l-4.539551 -1.6477356z" fill-rule="evenodd"/><path fill="#000000" fill-opacity="0.0" d="m177.31233 197.46194l38.960632 0l0 42.015747l-38.960632 0z" fill-rule="evenodd"/><path fill="#000000" d="m189.56233 224.38194l-3.1875 -13.359375l2.765625 0l2.015625 9.171875l2.4375 -9.171875l3.203125 0l2.34375 9.328125l2.046875 -9.328125l2.71875 0l-3.25 13.359375l-2.859375 0l-2.65625 -9.984375l-2.65625 9.984375l-2.921875 0z" fill-rule="nonzero"/><path fill="#000000" fill-opacity="0.0" d="m127.25722 151.43045l50.04724 0l0 31.02362l-50.04724 0z" fill-rule="evenodd"/><path fill="#ff0000" d="m139.6166 175.79045l-3.15625 -8.296875l1.484375 0l1.78125 4.96875q0.296875 0.796875 0.53125 1.671875q0.1875 -0.65625 0.53125 -1.578125l1.84375 -5.0625l1.4375 0l-3.140625 8.296875l-1.3125 0zm4.765625 0l3.03125 -4.3125l-2.8125 -3.984375l1.765625 0l1.265625 1.9375q0.359375 0.5625 0.578125 0.9375q0.34375 -0.515625 0.640625 -0.921875l1.390625 -1.953125l1.6875 0l-2.875 3.90625l3.09375 4.390625l-1.734375 0l-1.703125 -2.578125l-0.453125 -0.703125l-2.171875 3.28125l-1.703125 0z" fill-rule="nonzero"/><path fill="#000000" fill-opacity="0.0" d="m167.3937 70.24147l22.803146 13.70079" fill-rule="evenodd"/><path stroke="#000000" stroke-width="1.0" stroke-linejoin="round" stroke-linecap="butt" stroke-dasharray="4.0,3.0" d="m172.53679 73.33158l17.660065 10.61068" fill-rule="evenodd"/><path fill="#000000" stroke="#000000" stroke-width="1.0" stroke-linecap="butt" d="m173.38745 71.91575l-4.740631 -0.92137146l3.0392914 3.7530289z" fill-rule="evenodd"/><path fill="#000000" fill-opacity="0.0" d="m194.30446 67.96063l14.582687 -0.47244263" fill-rule="evenodd"/><path stroke="#ff0000" stroke-width="1.0" stroke-linejoin="round" stroke-linecap="butt" stroke-dasharray="4.0,3.0" d="m194.30446 67.96063l11.157379 -0.36147308" fill-rule="evenodd"/><path fill="#ff0000" stroke="#ff0000" stroke-width="1.0" stroke-linecap="butt" d="m205.46185 67.59916l-1.0875854 1.160408l3.0517426 -1.2240448l-3.1245728 -1.023941z" fill-rule="evenodd"/><path fill="#000000" fill-opacity="0.0" d="m172.60367 67.96063l14.582687 -0.47244263" fill-rule="evenodd"/><path stroke="#ff0000" stroke-width="1.0" stroke-linejoin="round" stroke-linecap="butt" stroke-dasharray="4.0,3.0" d="m176.02898 67.84966l11.157379 -0.36147308" fill-rule="evenodd"/><path fill="#ff0000" stroke="#ff0000" stroke-width="1.0" stroke-linecap="butt" d="m176.02896 67.84966l1.0875854 -1.160408l-3.0517426 1.2240372l3.1245728 1.0239487z" fill-rule="evenodd"/><path fill="#000000" fill-opacity="0.0" d="m197.95538 40.989502l29.196854 0l0 35.55905l-29.196854 0z" fill-rule="evenodd"/><path fill="#ff0000" d="m212.56476 60.57075l1.203125 0.140625q-0.28125 1.0625 -1.0625 1.65625q-0.765625 0.578125 -1.96875 0.578125q-1.515625 0 -2.40625 -0.9375q-0.890625 -0.9375 -0.890625 -2.609375q0 -1.75 0.890625 -2.703125q0.90625 -0.96875 2.34375 -0.96875q1.390625 0 2.265625 0.9375q0.875 0.9375 0.875 2.65625q0 0.109375 0 0.3125l-5.15625 0q0.0625 1.140625 0.640625 1.75q0.578125 0.59375 1.4375 0.59375q0.65625 0 1.109375 -0.328125q0.453125 -0.34375 0.71875 -1.078125zm-3.84375 -1.90625l3.859375 0q-0.078125 -0.859375 -0.4375 -1.296875q-0.5625 -0.6875 -1.453125 -0.6875q-0.8125 0 -1.359375 0.546875q-0.546875 0.53125 -0.609375 1.4375z" fill-rule="nonzero"/><path fill="#000000" fill-opacity="0.0" d="m157.81627 40.989502l19.496063 0l0 35.55905l-19.496063 0z" fill-rule="evenodd"/><path fill="#ff0000" d="m172.42564 60.57075l1.203125 0.140625q-0.28125 1.0625 -1.0625 1.65625q-0.765625 0.578125 -1.96875 0.578125q-1.515625 0 -2.40625 -0.9375q-0.890625 -0.9375 -0.890625 -2.609375q0 -1.75 0.890625 -2.703125q0.90625 -0.96875 2.34375 -0.96875q1.390625 0 2.265625 0.9375q0.875 0.9375 0.875 2.65625q0 0.109375 0 0.3125l-5.15625 0q0.0625 1.140625 0.640625 1.75q0.578125 0.59375 1.4375 0.59375q0.65625 0 1.109375 -0.328125q0.453125 -0.34375 0.71875 -1.078125zm-3.84375 -1.90625l3.859375 0q-0.078125 -0.859375 -0.4375 -1.296875q-0.5625 -0.6875 -1.453125 -0.6875q-0.8125 0 -1.359375 0.546875q-0.546875 0.53125 -0.609375 1.4375z" fill-rule="nonzero"/></g></svg>